<svg version="1" xmlns="http://www.w3.org/2000/svg" width="682.667" height="682.667" viewBox="0 0 512.000000 512.000000"><path d="M4.8 1.3C-1.1 6-1.5 20.6 4.1 26.6c1.9 2 3.1 2.2 13.2 2.4 49.3.8 68.7 10 72.5 34.3 1 6.6.3 26.1-1.2 34.2-.2 1.1-.9 5.4-1.6 9.5-.9 6.2-4.4 25.3-6.5 36-1.8 9.3-5.5 30.1-5.9 33-.2 1.9-.7 4.6-1 6-1.5 6.8-2.3 37.5-1.1 44.5.3 1.6.8 4.6 1.1 6.4.7 4.2 4.5 11.8 7.4 14.9 3.1 3.3 9 6.8 13.8 8.3l4.2 1.2-6 2.1C81.4 263.5 73.8 273 72.5 285c-1 9.1-.5 35.3.9 43.5.2 1.6.8 5 1.1 7.5.4 2.5.9 5.4 1.1 6.5.2 1.1.9 4.7 1.4 8 .5 3.3 1.2 6.9 1.4 8 .7 3.2 5.4 27.7 5.9 30.5 1.4 7.7 2.7 15 3.2 18.5.3 2.3.7 5.2 1 6.5 1.7 8.5 2.4 26.7 1.3 34.2-1.5 11.3-7.3 20.1-16.6 25.4-5.5 3-20 7-29.3 7.9-3.5.3-8.2.8-10.4 1-2.2.2-8.9.5-15 .6-6 .1-12 .6-13.2 1.2-6.3 2.8-7 20.1-1 25.8 2.1 2 2.9 2.1 19.7 1.5 9.6-.3 18.6-.8 20-1 1.4-.2 5.2-.7 8.5-1.1 12.2-1.3 25.8-4.9 35.4-9.2 24.4-11 32.4-29.4 31.6-72.8-.2-9.9-.5-19.1-.8-20.5-.3-1.4-1-5.7-1.6-9.5-1.3-8.6-1.5-9.4-5.2-27.5-1.6-8-3.4-15.9-3.9-17.5-.5-1.7-1.1-4.1-1.4-5.5-5-26.1-5.6-30.7-5.7-41.9-.1-13 3.4-20.1 11.7-23.6 5.2-2.1 7.6-2.6 18.4-3.2 13.1-.8 15.8-1.8 19.3-7.5 2.6-4.1 3-5.8 3-12.1.1-6.1-.4-8.3-2.5-12.3-3.8-7.2-6.3-8.7-15.5-9.1-17-.8-27-5.1-31.5-13.5-2-3.7-2.3-5.9-2.5-16.8-.1-6.9.3-15 .8-18 .9-5.4 3.8-20.1 4.4-23 5.3-23.4 9.9-46.1 11-54.5.3-2.2.9-6.7 1.4-10 1-6.4.7-39.3-.4-46-2.2-13.8-7.1-25.7-13.2-31.9C94.8 12.8 75.2 5 52.5 2.5c-3.3-.4-7.3-.9-9-1.1-1.6-.2-10.6-.6-20-.9C9.9 0 6.2.2 4.8 1.3z"/><path d="M163 .8c-5.4 2.5-8.8 7.1-9.1 12.2-.4 6.5 2 10.8 7.6 13.8 2.6 1.4 9.8 1.6 57 1.8 29.7.1 56.5.4 59.5.8 19.3 2.5 28.9 4.3 42.5 8.2 46.1 13.4 88.7 43.1 117.7 82 30.6 41.2 46.1 89 45.2 139.7-.2 13.2-.6 17.8-2.9 34.4-3.1 22.7-13.8 52.4-27.5 76.4-4.8 8.3-15.6 24-20.4 29.7-20.1 23.7-39.3 39.9-64.9 54.6-5.4 3.1-9.9 5.6-10.1 5.6-.2 0-4.2 1.8-8.9 4-19.6 9.1-44.9 15.8-70.7 18.6-3.6.4-30.3.8-59.5.9-29.1.1-54.1.5-55.5.9-9.7 3.2-12.3 16.6-4.6 24.1 3.6 3.5 6.4 3.7 65.3 3.2 31.8-.2 58.9-.7 60.3-1 1.4-.3 4.8-.8 7.5-1.1 10.9-1.3 27.3-4.9 39.9-8.8 3.9-1.2 7.3-2.3 7.6-2.3.3 0 4.3-1.6 9-3.4 63-24.5 113.9-72.7 141.5-134 3.8-8.5 10.9-27.6 12-32.1.2-.8 1.3-5.1 2.5-9.5 2.3-8.9 3.8-16 4.6-22 .3-2.2.7-4.6.9-5.3 1.9-5.6 2.7-49.3 1.2-62.7-1.6-14-3.6-25.7-6.2-35-.8-2.8-1.6-6.1-1.9-7.5-.2-1.4-2-7-3.9-12.5-8.7-25.4-19.5-46.4-34.9-68-3.9-5.5-7.4-10.2-7.7-10.5-.3-.3-3.1-3.4-6.1-7-28.9-34.3-69.5-61.5-114-76.4-7.1-2.3-20.6-6-26-7-1.4-.3-4.7-.9-7.5-1.4-2.7-.6-7.2-1.3-10-1.6-2.7-.4-6.6-.9-8.5-1.3-5.1-.9-119.2-1.4-121-.5z"/><path d="M193.2 62.6c-1.5.6-4 2.6-5.6 4.3-2.5 2.6-2.9 3.9-2.9 8.1 0 6 2.2 9.6 7.5 12.3 3.1 1.5 7.3 1.7 38.7 1.9 32.3.1 38.6.5 55.6 3.2 7.9 1.3 23.2 5.5 32.1 8.9 25.1 9.6 45.2 22.6 64 41.2 26.7 26.5 42.1 57.4 47.3 95.5 1.3 9.3.6 35-1.3 44.8-9.1 48.8-38.7 89.6-83.4 115.3-9 5.1-27.9 13.6-34.7 15.5-.5.1-4.1 1.2-8 2.2-7.3 2.1-19.7 4.7-27.5 5.8-2.5.3-21.6.8-42.4 1-41.4.5-41.4.5-45.7 6.4-5.2 7.2-1.3 17.8 7.6 20.7 3.4 1.1 69.4 1 79.5-.1 28.1-3.1 56.1-11.5 80-23.9 7.9-4.1 27.2-16.6 32.9-21.4 14.9-12.2 18.6-15.8 29.9-29.3 8.8-10.4 8.1-9.4 15.7-21.5 14.5-23 24-50 27.2-77 .9-7.6.9-31.9 0-40.6-3-30.2-16.2-63.6-35.2-89.4-35-47.3-87.9-76.8-151-84.1-10.8-1.2-77.4-1.1-80.3.2z"/><path d="M194.2 113.7c-11.9 4.1-13.1 20.2-1.9 26 2.7 1.4 8.1 1.6 37.7 1.8 19 .2 36.5.6 39 1 6.9 1 18.8 4.2 25.7 6.9 6.4 2.5 23.4 11.3 24.3 12.5.3.4 2.6 2.1 5.1 3.8 6.1 4.2 17.7 15.9 23.8 24.1 9.1 12.1 16.6 29.6 20.2 46.7 1.7 8.5 1.5 32.3-.5 41.2-7.2 32.8-26.4 59.4-55 76.2-12.4 7.2-26.6 12.6-38.6 14.6-2.5.4-5.4 1-6.5 1.2-1.1.3-17.8.7-37.2.9-29.2.2-35.7.6-38.2 1.8-10.1 5.3-10 20 .2 25.3 2.8 1.4 7.3 1.6 35.7 1.6 39-.1 44.5-.5 61.3-4.9 3.4-.9 6.7-1.7 7.2-1.8 2.8-.5 15-5.5 22.6-9.3 26.4-13.2 47.1-32.8 62.1-58.7 3.2-5.5 5.8-10.5 5.8-11.1 0-.5.6-2.2 1.4-3.6 1.2-2.3 5.6-14.7 6.2-17.4 2.5-11.2 3.4-16.1 4-20.6.7-6.1.7-28.3 0-31.6-.2-1.1-.7-4.3-1.1-7-2-14.8-10.5-37.2-19.3-51.2-7.7-12.2-21.3-27.6-32.2-36.2-6.4-5.2-14.8-10.9-15.9-10.9-.5 0-1.1-.3-1.3-.8-.5-1.2-13.4-7.7-22-11.1-11.7-4.6-22.8-7.3-40.2-9.8-8.1-1.1-68.9-.8-72.4.4z"/></svg>